<svg xmlns="http://www.w3.org/2000/svg" version="1.1" xmlns:xlink="http://www.w3.org/1999/xlink" xmlns:svgjs="http://svgjs.com/svgjs" id="Pattern1667SvgRootPreview" width="100%" height="100%"><defs><pattern x="0" y="0" width="1" height="1" patternUnits="userSpaceOnUse" id="Pattern1667Layer1" patternTransform="matrix(6.944444444444445,0,0,6.944444444444445,0,0)"><g id="PatternRootContent1"><g id="Pattern1667Layer1background"><rect width="1" height="1" id="Pattern1667Background1" class="color_1 fill_color_1" fill="#c0c0f0"></rect></g></g></pattern><pattern x="0" y="0" width="50" height="100" patternUnits="userSpaceOnUse" id="Pattern1667Layer2" patternTransform="matrix(5,0,0,5,0,0)"><g id="PatternRootContent2"><g id="Pattern1667Layer2Element1"><use xlink:href="#Pattern1667Element1" x="29" y="-45" transform="translate(50, -24) scale(1) translate(-50, 24) rotate(-45, 50, -25)"></use><use xlink:href="#Pattern1667Element1" x="-21" y="-45" transform="translate(0, -24) scale(1) translate(0, 24) rotate(-45, 0, -25)"></use><use xlink:href="#Pattern1667Element1" x="4" y="5" transform="translate(25, 26) scale(1) translate(-25, -26) rotate(45, 25, 25)"></use><use xlink:href="#Pattern1667Element1" x="-46" y="5" transform="translate(-25, 26) scale(1) translate(25, -26) rotate(45, -25, 25)"></use><use xlink:href="#Pattern1667Element1" x="54" y="5" transform="translate(75, 26) scale(1) translate(-75, -26) rotate(45, 75, 25)"></use><use xlink:href="#Pattern1667Element1" x="29" y="55" transform="translate(50, 76) scale(1) translate(-50, -76) rotate(-45, 50, 75)"></use><use xlink:href="#Pattern1667Element1" x="-21" y="55" transform="translate(0, 76) scale(1) translate(0, -76) rotate(-45, 0, 75)"></use><use xlink:href="#Pattern1667Element1" x="4" y="105" transform="translate(25, 126) scale(1) translate(-25, -126) rotate(45, 25, 125)"></use><use xlink:href="#Pattern1667Element1" x="4" y="105" transform="translate(25, 126) scale(1) translate(-25, -126) rotate(45, 25, 125)"></use></g></g></pattern><symbol id="Pattern1667Element1"><polygon points="21,0 42,15.279 33.979,40 8.021,40 0,15.279 " class="color_2 fill_color_2" fill="#7878a8"></polygon></symbol></defs><rect width="100%" height="100%" id="Pattern1667RctLayer1" fill="url(#Pattern1667Layer1)"></rect><rect width="100%" height="100%" id="Pattern1667RctLayer2" fill="url(#Pattern1667Layer2)"></rect></svg>